<svg viewBox="0 0 64 64" xmlns="http://www.w3.org/2000/svg" role="img" aria-label="moth">
  <defs>
    <linearGradient id="w" x1="0" y1="0" x2="0" y2="1">
      <stop offset="0" stop-color="#e0af68"/>
      <stop offset="1" stop-color="#c98a3e"/>
    </linearGradient>
  </defs>
  <!-- upper wings -->
  <path d="M32 21C19 8 5 15 6.5 29.5 8 43 21 47.5 32 43.5Z" fill="url(#w)"/>
  <path d="M32 21C45 8 59 15 57.5 29.5 56 43 43 47.5 32 43.5Z" fill="url(#w)"/>
  <!-- lower wings -->
  <path d="M32 40c-7 5-12 12-7 15.5 4 2.5 7-3 7-8.5Z" fill="#bb9af7" opacity=".8"/>
  <path d="M32 40c7 5 12 12 7 15.5-4 2.5-7-3-7-8.5Z" fill="#bb9af7" opacity=".8"/>
  <!-- body -->
  <ellipse cx="32" cy="33" rx="3.4" ry="14" fill="#1a1b26" opacity=".85"/>
  <!-- antennae -->
  <path d="M30.6 20C27.5 13.5 23 10 18.5 9" stroke="#e0af68" stroke-width="2.2" stroke-linecap="round" fill="none"/>
  <path d="M33.4 20C36.5 13.5 41 10 45.5 9" stroke="#e0af68" stroke-width="2.2" stroke-linecap="round" fill="none"/>
</svg>
